<svg width="33" height="32" viewBox="0 0 33 32" fill="none" xmlns="http://www.w3.org/2000/svg">
<path d="M3.03897 3C3.03897 2.73478 3.14449 2.48043 3.3323 2.29289C3.52012 2.10536 3.77486 2 4.04047 2H28.0764C28.342 2 28.5968 2.10536 28.7846 2.29289C28.9724 2.48043 29.0779 2.73478 29.0779 3V7C29.0779 7.24662 28.9866 7.48452 28.8215 7.668L20.0644 17.384V27C20.0643 27.2098 19.998 27.4142 19.8751 27.5844C19.7522 27.7545 19.5788 27.8817 19.3794 27.948L13.3704 29.948C13.2199 29.998 13.0597 30.0117 12.9029 29.9878C12.7461 29.9639 12.5973 29.9032 12.4686 29.8106C12.3399 29.7181 12.2351 29.5963 12.1627 29.4554C12.0904 29.3144 12.0526 29.1584 12.0525 29V17.384L3.29535 7.668C3.13032 7.48452 3.03902 7.24662 3.03897 7V3ZM5.04197 4V6.616L13.7991 16.332C13.9641 16.5155 14.0554 16.7534 14.0555 17V27.612L18.0614 26.28V17C18.0615 16.7534 18.1528 16.5155 18.3178 16.332L27.0749 6.616V4H5.04197Z" fill="white"/>
</svg>
